<?xml version="1.0" encoding="UTF-8"?>
<svg id="Layer_2" data-name="Layer 2" xmlns="http://www.w3.org/2000/svg" viewBox="0 0 213.01 245.16">
  <defs>
    <style>
      .cls-1 {
        fill: #1872e0;
      }
    </style>
  </defs>
  <g id="Layer_1-2" data-name="Layer 1">
    <g>
      <path class="cls-1" d="M203.01,245.16H10c-5.52,0-10-4.48-10-10V106.51c0-2.65,1.05-5.2,2.93-7.07L99.43,2.93c3.91-3.91,10.24-3.91,14.14,0l96.51,96.51c1.88,1.88,2.93,4.42,2.93,7.07v128.66c0,5.52-4.48,10-10,10ZM20,225.16h173.01v-114.52L106.51,24.14,20,110.65v114.52Z"/>
      <path class="cls-1" d="M92.24,194.68c-2.56,0-5.12-.98-7.07-2.93l-36.09-36.09c-3.91-3.91-3.91-10.24,0-14.14s10.24-3.91,14.14,0l29.15,29.15,57.55-55.31c3.98-3.83,10.31-3.7,14.14.28,3.83,3.98,3.7,10.31-.28,14.14l-64.62,62.1c-1.94,1.86-4.43,2.79-6.93,2.79Z"/>
    </g>
  </g>
</svg>