<?xml version="1.0" encoding="UTF-8"?>
<svg id="Layer_2" data-name="Layer 2" xmlns="http://www.w3.org/2000/svg" viewBox="0 0 809.59 245.16">
  <defs>
    <style>
      .cls-1 {
        fill: #1872e0;
      }
    </style>
  </defs>
  <g id="Layer_1-2" data-name="Layer 1">
    <g>
      <g>
        <path class="cls-1" d="M256.41,174.5v28.02h-18.49v-99.57h42.1c21.19,0,36.13,16.07,36.13,35.7s-14.94,35.85-36.13,35.85h-23.61ZM277.6,158.57c12.23,0,20.06-8.96,20.06-19.91s-7.82-19.77-20.06-19.77h-21.19v39.69h21.19Z"/>
        <path class="cls-1" d="M371.63,148.76h-3.84c-14.37,0-21.05,8.39-21.05,22.19v31.58h-17.92v-70.98h17.35v15.36c3.41-11.24,12.94-15.93,25.46-15.93v17.78Z"/>
        <path class="cls-1" d="M378.17,167.1c0-19.35,14.51-37.27,38.97-37.27s38.97,17.92,38.97,37.27-14.51,37.12-38.97,37.12-38.97-17.92-38.97-37.12ZM395.66,167.1c0,11.52,7.68,22.19,21.48,22.19s21.48-10.67,21.48-22.19-7.68-22.33-21.48-22.33-21.48,10.81-21.48,22.33Z"/>
        <path class="cls-1" d="M489.26,232.25h-17.92v-100.71h17.21v12.23c4.12-7.25,13.51-13.94,25.89-13.94,21.05,0,35.85,16.78,35.85,37.27s-14.79,37.12-35.85,37.12c-12.38,0-21.62-6.26-25.18-13.94v41.96ZM510.88,144.63c-11.66,0-21.62,8.82-21.62,22.47s9.96,22.33,21.62,22.33c12.8,0,21.48-9.96,21.48-22.33s-8.68-22.47-21.48-22.47Z"/>
        <path class="cls-1" d="M578.73,173.08c1.14,10.67,7.97,17.92,20.62,17.92,8.68,0,15.36-3.84,18.78-9.25h16.64c-4.84,12.66-18.49,22.47-35.42,22.47-24.18,0-38.26-16.07-38.26-37.27s15.5-37.13,37.41-37.13,37.27,15.5,37.27,37.41v5.83h-57.04ZM578.59,161.27h40.11c-1.14-10.95-8.39-18.63-19.91-18.63s-18.78,7.11-20.2,18.63Z"/>
        <path class="cls-1" d="M693.95,148.76h-3.84c-14.37,0-21.05,8.39-21.05,22.19v31.58h-17.92v-70.98h17.35v15.36c3.41-11.24,12.94-15.93,25.46-15.93v17.78Z"/>
        <path class="cls-1" d="M706.03,202.52v-103.84h17.92v103.84h-17.92Z"/>
        <path class="cls-1" d="M790.95,131.54h18.63l-28.88,70.27-11.81,30.44h-18.63l12.94-32.43-28.02-68.28h18.49l18.78,50.64,18.49-50.64Z"/>
      </g>
      <path class="cls-1" d="M203.01,245.16H10c-5.52,0-10-4.48-10-10V106.51c0-2.65,1.05-5.2,2.93-7.07L99.43,2.93c3.91-3.91,10.24-3.91,14.14,0l96.51,96.51c1.88,1.88,2.93,4.42,2.93,7.07v128.66c0,5.52-4.48,10-10,10ZM20,225.16h173.01v-114.52L106.51,24.14,20,110.65v114.52Z"/>
      <path class="cls-1" d="M92.24,194.68c-2.56,0-5.12-.98-7.07-2.93l-36.09-36.09c-3.91-3.91-3.91-10.24,0-14.14s10.24-3.91,14.14,0l29.15,29.15,57.55-55.31c3.98-3.83,10.31-3.7,14.14.28,3.83,3.98,3.7,10.31-.28,14.14l-64.62,62.1c-1.94,1.86-4.43,2.79-6.93,2.79Z"/>
    </g>
  </g>
</svg>