<?xml version="1.0" encoding="UTF-8"?>
<svg id="Layer_2" data-name="Layer 2" xmlns="http://www.w3.org/2000/svg" viewBox="0 0 340.67 356.97">
  <defs>
    <style>
      .cls-1 {
        fill: #1872e0;
      }
    </style>
  </defs>
  <g id="Layer_1-2" data-name="Layer 1">
    <g>
      <g>
        <path class="cls-1" d="M11.02,322.56v16.7H0v-59.34h25.09c12.63,0,21.53,9.58,21.53,21.28s-8.9,21.36-21.53,21.36h-14.07ZM23.65,313.07c7.29,0,11.95-5.34,11.95-11.87s-4.66-11.78-11.95-11.78h-12.63v23.65h12.63Z"/>
        <path class="cls-1" d="M79.68,307.22h-2.29c-8.56,0-12.55,5-12.55,13.22v18.82h-10.68v-42.3h10.34v9.15c2.03-6.7,7.71-9.49,15.17-9.49v10.6Z"/>
        <path class="cls-1" d="M83.58,318.15c0-11.53,8.65-22.21,23.23-22.21s23.23,10.68,23.23,22.21-8.65,22.12-23.23,22.12-23.23-10.68-23.23-22.12ZM94.01,318.15c0,6.87,4.58,13.22,12.8,13.22s12.8-6.36,12.8-13.22-4.58-13.31-12.8-13.31-12.8,6.44-12.8,13.31Z"/>
        <path class="cls-1" d="M149.78,356.97h-10.68v-60.01h10.26v7.29c2.46-4.32,8.05-8.31,15.43-8.31,12.55,0,21.36,10,21.36,22.21s-8.82,22.12-21.36,22.12c-7.37,0-12.88-3.73-15-8.31v25.01ZM162.67,304.76c-6.95,0-12.88,5.26-12.88,13.39s5.93,13.31,12.88,13.31c7.63,0,12.8-5.93,12.8-13.31s-5.17-13.39-12.8-13.39Z"/>
        <path class="cls-1" d="M203.1,321.71c.68,6.36,4.75,10.68,12.29,10.68,5.17,0,9.15-2.29,11.19-5.51h9.92c-2.88,7.54-11.02,13.39-21.11,13.39-14.41,0-22.8-9.58-22.8-22.21s9.24-22.12,22.29-22.12,22.21,9.24,22.21,22.29v3.48h-33.99ZM203.01,314.68h23.9c-.68-6.53-5-11.1-11.87-11.1s-11.19,4.24-12.04,11.1Z"/>
        <path class="cls-1" d="M271.76,307.22h-2.29c-8.56,0-12.55,5-12.55,13.22v18.82h-10.68v-42.3h10.34v9.15c2.03-6.7,7.71-9.49,15.17-9.49v10.6Z"/>
        <path class="cls-1" d="M278.96,339.26v-61.88h10.68v61.88h-10.68Z"/>
        <path class="cls-1" d="M329.57,296.96h11.1l-17.21,41.87-7.04,18.14h-11.1l7.71-19.33-16.7-40.69h11.02l11.19,30.18,11.02-30.18Z"/>
      </g>
      <path class="cls-1" d="M266.84,245.16H73.83c-5.52,0-10-4.48-10-10V106.51c0-2.65,1.05-5.2,2.93-7.07L163.26,2.93c3.91-3.91,10.24-3.91,14.14,0l96.51,96.51c1.88,1.88,2.93,4.42,2.93,7.07v128.66c0,5.52-4.48,10-10,10ZM83.83,225.16h173.01v-114.52L170.34,24.14l-86.51,86.51v114.52Z"/>
      <path class="cls-1" d="M156.07,194.68c-2.56,0-5.12-.98-7.07-2.93l-36.09-36.09c-3.91-3.91-3.91-10.24,0-14.14s10.24-3.91,14.14,0l29.15,29.15,57.55-55.31c3.98-3.83,10.31-3.7,14.14.28,3.83,3.98,3.7,10.31-.28,14.14l-64.62,62.1c-1.94,1.86-4.43,2.79-6.93,2.79Z"/>
    </g>
  </g>
</svg>